G04 #@! TF.GenerationSoftware,KiCad,Pcbnew,9.0.2*
G04 #@! TF.CreationDate,2025-06-20T02:48:36-04:00*
G04 #@! TF.ProjectId,IR_Prototype,49525f50-726f-4746-9f74-7970652e6b69,rev?*
G04 #@! TF.SameCoordinates,Original*
G04 #@! TF.FileFunction,Legend,Top*
G04 #@! TF.FilePolarity,Positive*
%FSLAX46Y46*%
G04 Gerber Fmt 4.6, Leading zero omitted, Abs format (unit mm)*
G04 Created by KiCad (PCBNEW 9.0.2) date 2025-06-20 02:48:36*
%MOMM*%
%LPD*%
G01*
G04 APERTURE LIST*
%ADD10C,0.152400*%
%ADD11C,0.300000*%
%ADD12C,0.150000*%
%ADD13C,0.120000*%
G04 APERTURE END LIST*
D10*
X62869694Y-48775927D02*
X63583979Y-48775927D01*
X63583979Y-48775927D02*
X63726836Y-48823546D01*
X63726836Y-48823546D02*
X63822075Y-48918784D01*
X63822075Y-48918784D02*
X63869694Y-49061641D01*
X63869694Y-49061641D02*
X63869694Y-49156879D01*
X63869694Y-47823546D02*
X63869694Y-48299736D01*
X63869694Y-48299736D02*
X62869694Y-48299736D01*
X63774455Y-46918784D02*
X63822075Y-46966403D01*
X63822075Y-46966403D02*
X63869694Y-47109260D01*
X63869694Y-47109260D02*
X63869694Y-47204498D01*
X63869694Y-47204498D02*
X63822075Y-47347355D01*
X63822075Y-47347355D02*
X63726836Y-47442593D01*
X63726836Y-47442593D02*
X63631598Y-47490212D01*
X63631598Y-47490212D02*
X63441122Y-47537831D01*
X63441122Y-47537831D02*
X63298265Y-47537831D01*
X63298265Y-47537831D02*
X63107789Y-47490212D01*
X63107789Y-47490212D02*
X63012551Y-47442593D01*
X63012551Y-47442593D02*
X62917313Y-47347355D01*
X62917313Y-47347355D02*
X62869694Y-47204498D01*
X62869694Y-47204498D02*
X62869694Y-47109260D01*
X62869694Y-47109260D02*
X62917313Y-46966403D01*
X62917313Y-46966403D02*
X62964932Y-46918784D01*
X62869694Y-46204498D02*
X63583979Y-46204498D01*
X63583979Y-46204498D02*
X63726836Y-46252117D01*
X63726836Y-46252117D02*
X63822075Y-46347355D01*
X63822075Y-46347355D02*
X63869694Y-46490212D01*
X63869694Y-46490212D02*
X63869694Y-46585450D01*
X63869694Y-45252117D02*
X63869694Y-45728307D01*
X63869694Y-45728307D02*
X62869694Y-45728307D01*
X63774455Y-44347355D02*
X63822075Y-44394974D01*
X63822075Y-44394974D02*
X63869694Y-44537831D01*
X63869694Y-44537831D02*
X63869694Y-44633069D01*
X63869694Y-44633069D02*
X63822075Y-44775926D01*
X63822075Y-44775926D02*
X63726836Y-44871164D01*
X63726836Y-44871164D02*
X63631598Y-44918783D01*
X63631598Y-44918783D02*
X63441122Y-44966402D01*
X63441122Y-44966402D02*
X63298265Y-44966402D01*
X63298265Y-44966402D02*
X63107789Y-44918783D01*
X63107789Y-44918783D02*
X63012551Y-44871164D01*
X63012551Y-44871164D02*
X62917313Y-44775926D01*
X62917313Y-44775926D02*
X62869694Y-44633069D01*
X62869694Y-44633069D02*
X62869694Y-44537831D01*
X62869694Y-44537831D02*
X62917313Y-44394974D01*
X62917313Y-44394974D02*
X62964932Y-44347355D01*
X62869694Y-43633069D02*
X63583979Y-43633069D01*
X63583979Y-43633069D02*
X63726836Y-43680688D01*
X63726836Y-43680688D02*
X63822075Y-43775926D01*
X63822075Y-43775926D02*
X63869694Y-43918783D01*
X63869694Y-43918783D02*
X63869694Y-44014021D01*
X63869694Y-42680688D02*
X63869694Y-43156878D01*
X63869694Y-43156878D02*
X62869694Y-43156878D01*
X63774455Y-41775926D02*
X63822075Y-41823545D01*
X63822075Y-41823545D02*
X63869694Y-41966402D01*
X63869694Y-41966402D02*
X63869694Y-42061640D01*
X63869694Y-42061640D02*
X63822075Y-42204497D01*
X63822075Y-42204497D02*
X63726836Y-42299735D01*
X63726836Y-42299735D02*
X63631598Y-42347354D01*
X63631598Y-42347354D02*
X63441122Y-42394973D01*
X63441122Y-42394973D02*
X63298265Y-42394973D01*
X63298265Y-42394973D02*
X63107789Y-42347354D01*
X63107789Y-42347354D02*
X63012551Y-42299735D01*
X63012551Y-42299735D02*
X62917313Y-42204497D01*
X62917313Y-42204497D02*
X62869694Y-42061640D01*
X62869694Y-42061640D02*
X62869694Y-41966402D01*
X62869694Y-41966402D02*
X62917313Y-41823545D01*
X62917313Y-41823545D02*
X62964932Y-41775926D01*
X62869694Y-41061640D02*
X63583979Y-41061640D01*
X63583979Y-41061640D02*
X63726836Y-41109259D01*
X63726836Y-41109259D02*
X63822075Y-41204497D01*
X63822075Y-41204497D02*
X63869694Y-41347354D01*
X63869694Y-41347354D02*
X63869694Y-41442592D01*
X63869694Y-40109259D02*
X63869694Y-40585449D01*
X63869694Y-40585449D02*
X62869694Y-40585449D01*
X63774455Y-39204497D02*
X63822075Y-39252116D01*
X63822075Y-39252116D02*
X63869694Y-39394973D01*
X63869694Y-39394973D02*
X63869694Y-39490211D01*
X63869694Y-39490211D02*
X63822075Y-39633068D01*
X63822075Y-39633068D02*
X63726836Y-39728306D01*
X63726836Y-39728306D02*
X63631598Y-39775925D01*
X63631598Y-39775925D02*
X63441122Y-39823544D01*
X63441122Y-39823544D02*
X63298265Y-39823544D01*
X63298265Y-39823544D02*
X63107789Y-39775925D01*
X63107789Y-39775925D02*
X63012551Y-39728306D01*
X63012551Y-39728306D02*
X62917313Y-39633068D01*
X62917313Y-39633068D02*
X62869694Y-39490211D01*
X62869694Y-39490211D02*
X62869694Y-39394973D01*
X62869694Y-39394973D02*
X62917313Y-39252116D01*
X62917313Y-39252116D02*
X62964932Y-39204497D01*
D11*
X44954510Y-50300828D02*
X44954510Y-48800828D01*
X46525939Y-50300828D02*
X46025939Y-49586542D01*
X45668796Y-50300828D02*
X45668796Y-48800828D01*
X45668796Y-48800828D02*
X46240225Y-48800828D01*
X46240225Y-48800828D02*
X46383082Y-48872257D01*
X46383082Y-48872257D02*
X46454511Y-48943685D01*
X46454511Y-48943685D02*
X46525939Y-49086542D01*
X46525939Y-49086542D02*
X46525939Y-49300828D01*
X46525939Y-49300828D02*
X46454511Y-49443685D01*
X46454511Y-49443685D02*
X46383082Y-49515114D01*
X46383082Y-49515114D02*
X46240225Y-49586542D01*
X46240225Y-49586542D02*
X45668796Y-49586542D01*
X48311653Y-50300828D02*
X48311653Y-48800828D01*
X48311653Y-48800828D02*
X48811653Y-49872257D01*
X48811653Y-49872257D02*
X49311653Y-48800828D01*
X49311653Y-48800828D02*
X49311653Y-50300828D01*
X50240225Y-50300828D02*
X50097368Y-50229400D01*
X50097368Y-50229400D02*
X50025939Y-50157971D01*
X50025939Y-50157971D02*
X49954511Y-50015114D01*
X49954511Y-50015114D02*
X49954511Y-49586542D01*
X49954511Y-49586542D02*
X50025939Y-49443685D01*
X50025939Y-49443685D02*
X50097368Y-49372257D01*
X50097368Y-49372257D02*
X50240225Y-49300828D01*
X50240225Y-49300828D02*
X50454511Y-49300828D01*
X50454511Y-49300828D02*
X50597368Y-49372257D01*
X50597368Y-49372257D02*
X50668797Y-49443685D01*
X50668797Y-49443685D02*
X50740225Y-49586542D01*
X50740225Y-49586542D02*
X50740225Y-50015114D01*
X50740225Y-50015114D02*
X50668797Y-50157971D01*
X50668797Y-50157971D02*
X50597368Y-50229400D01*
X50597368Y-50229400D02*
X50454511Y-50300828D01*
X50454511Y-50300828D02*
X50240225Y-50300828D01*
X52025940Y-50300828D02*
X52025940Y-48800828D01*
X52025940Y-50229400D02*
X51883082Y-50300828D01*
X51883082Y-50300828D02*
X51597368Y-50300828D01*
X51597368Y-50300828D02*
X51454511Y-50229400D01*
X51454511Y-50229400D02*
X51383082Y-50157971D01*
X51383082Y-50157971D02*
X51311654Y-50015114D01*
X51311654Y-50015114D02*
X51311654Y-49586542D01*
X51311654Y-49586542D02*
X51383082Y-49443685D01*
X51383082Y-49443685D02*
X51454511Y-49372257D01*
X51454511Y-49372257D02*
X51597368Y-49300828D01*
X51597368Y-49300828D02*
X51883082Y-49300828D01*
X51883082Y-49300828D02*
X52025940Y-49372257D01*
X53383083Y-49300828D02*
X53383083Y-50300828D01*
X52740225Y-49300828D02*
X52740225Y-50086542D01*
X52740225Y-50086542D02*
X52811654Y-50229400D01*
X52811654Y-50229400D02*
X52954511Y-50300828D01*
X52954511Y-50300828D02*
X53168797Y-50300828D01*
X53168797Y-50300828D02*
X53311654Y-50229400D01*
X53311654Y-50229400D02*
X53383083Y-50157971D01*
X54311654Y-50300828D02*
X54168797Y-50229400D01*
X54168797Y-50229400D02*
X54097368Y-50086542D01*
X54097368Y-50086542D02*
X54097368Y-48800828D01*
X55454511Y-50229400D02*
X55311654Y-50300828D01*
X55311654Y-50300828D02*
X55025940Y-50300828D01*
X55025940Y-50300828D02*
X54883082Y-50229400D01*
X54883082Y-50229400D02*
X54811654Y-50086542D01*
X54811654Y-50086542D02*
X54811654Y-49515114D01*
X54811654Y-49515114D02*
X54883082Y-49372257D01*
X54883082Y-49372257D02*
X55025940Y-49300828D01*
X55025940Y-49300828D02*
X55311654Y-49300828D01*
X55311654Y-49300828D02*
X55454511Y-49372257D01*
X55454511Y-49372257D02*
X55525940Y-49515114D01*
X55525940Y-49515114D02*
X55525940Y-49657971D01*
X55525940Y-49657971D02*
X54811654Y-49800828D01*
D12*
X37719048Y-35654819D02*
X38290476Y-35654819D01*
X38004762Y-36654819D02*
X38004762Y-35654819D01*
X39195238Y-36654819D02*
X38861905Y-36178628D01*
X38623810Y-36654819D02*
X38623810Y-35654819D01*
X38623810Y-35654819D02*
X39004762Y-35654819D01*
X39004762Y-35654819D02*
X39100000Y-35702438D01*
X39100000Y-35702438D02*
X39147619Y-35750057D01*
X39147619Y-35750057D02*
X39195238Y-35845295D01*
X39195238Y-35845295D02*
X39195238Y-35988152D01*
X39195238Y-35988152D02*
X39147619Y-36083390D01*
X39147619Y-36083390D02*
X39100000Y-36131009D01*
X39100000Y-36131009D02*
X39004762Y-36178628D01*
X39004762Y-36178628D02*
X38623810Y-36178628D01*
X39576191Y-36607200D02*
X39719048Y-36654819D01*
X39719048Y-36654819D02*
X39957143Y-36654819D01*
X39957143Y-36654819D02*
X40052381Y-36607200D01*
X40052381Y-36607200D02*
X40100000Y-36559580D01*
X40100000Y-36559580D02*
X40147619Y-36464342D01*
X40147619Y-36464342D02*
X40147619Y-36369104D01*
X40147619Y-36369104D02*
X40100000Y-36273866D01*
X40100000Y-36273866D02*
X40052381Y-36226247D01*
X40052381Y-36226247D02*
X39957143Y-36178628D01*
X39957143Y-36178628D02*
X39766667Y-36131009D01*
X39766667Y-36131009D02*
X39671429Y-36083390D01*
X39671429Y-36083390D02*
X39623810Y-36035771D01*
X39623810Y-36035771D02*
X39576191Y-35940533D01*
X39576191Y-35940533D02*
X39576191Y-35845295D01*
X39576191Y-35845295D02*
X39623810Y-35750057D01*
X39623810Y-35750057D02*
X39671429Y-35702438D01*
X39671429Y-35702438D02*
X39766667Y-35654819D01*
X39766667Y-35654819D02*
X40004762Y-35654819D01*
X40004762Y-35654819D02*
X40147619Y-35702438D01*
X40338096Y-36750057D02*
X41100000Y-36750057D01*
X41338096Y-36654819D02*
X41338096Y-35654819D01*
X41814286Y-36654819D02*
X41814286Y-35654819D01*
X41814286Y-35654819D02*
X42385714Y-36654819D01*
X42385714Y-36654819D02*
X42385714Y-35654819D01*
X43385714Y-36654819D02*
X42814286Y-36654819D01*
X43100000Y-36654819D02*
X43100000Y-35654819D01*
X43100000Y-35654819D02*
X43004762Y-35797676D01*
X43004762Y-35797676D02*
X42909524Y-35892914D01*
X42909524Y-35892914D02*
X42814286Y-35940533D01*
X57771428Y-36654819D02*
X57438095Y-36178628D01*
X57200000Y-36654819D02*
X57200000Y-35654819D01*
X57200000Y-35654819D02*
X57580952Y-35654819D01*
X57580952Y-35654819D02*
X57676190Y-35702438D01*
X57676190Y-35702438D02*
X57723809Y-35750057D01*
X57723809Y-35750057D02*
X57771428Y-35845295D01*
X57771428Y-35845295D02*
X57771428Y-35988152D01*
X57771428Y-35988152D02*
X57723809Y-36083390D01*
X57723809Y-36083390D02*
X57676190Y-36131009D01*
X57676190Y-36131009D02*
X57580952Y-36178628D01*
X57580952Y-36178628D02*
X57200000Y-36178628D01*
X58200000Y-36131009D02*
X58533333Y-36131009D01*
X58676190Y-36654819D02*
X58200000Y-36654819D01*
X58200000Y-36654819D02*
X58200000Y-35654819D01*
X58200000Y-35654819D02*
X58676190Y-35654819D01*
X59676190Y-36559580D02*
X59628571Y-36607200D01*
X59628571Y-36607200D02*
X59485714Y-36654819D01*
X59485714Y-36654819D02*
X59390476Y-36654819D01*
X59390476Y-36654819D02*
X59247619Y-36607200D01*
X59247619Y-36607200D02*
X59152381Y-36511961D01*
X59152381Y-36511961D02*
X59104762Y-36416723D01*
X59104762Y-36416723D02*
X59057143Y-36226247D01*
X59057143Y-36226247D02*
X59057143Y-36083390D01*
X59057143Y-36083390D02*
X59104762Y-35892914D01*
X59104762Y-35892914D02*
X59152381Y-35797676D01*
X59152381Y-35797676D02*
X59247619Y-35702438D01*
X59247619Y-35702438D02*
X59390476Y-35654819D01*
X59390476Y-35654819D02*
X59485714Y-35654819D01*
X59485714Y-35654819D02*
X59628571Y-35702438D01*
X59628571Y-35702438D02*
X59676190Y-35750057D01*
X59866667Y-36750057D02*
X60628571Y-36750057D01*
X61057143Y-35654819D02*
X61247619Y-35654819D01*
X61247619Y-35654819D02*
X61342857Y-35702438D01*
X61342857Y-35702438D02*
X61438095Y-35797676D01*
X61438095Y-35797676D02*
X61485714Y-35988152D01*
X61485714Y-35988152D02*
X61485714Y-36321485D01*
X61485714Y-36321485D02*
X61438095Y-36511961D01*
X61438095Y-36511961D02*
X61342857Y-36607200D01*
X61342857Y-36607200D02*
X61247619Y-36654819D01*
X61247619Y-36654819D02*
X61057143Y-36654819D01*
X61057143Y-36654819D02*
X60961905Y-36607200D01*
X60961905Y-36607200D02*
X60866667Y-36511961D01*
X60866667Y-36511961D02*
X60819048Y-36321485D01*
X60819048Y-36321485D02*
X60819048Y-35988152D01*
X60819048Y-35988152D02*
X60866667Y-35797676D01*
X60866667Y-35797676D02*
X60961905Y-35702438D01*
X60961905Y-35702438D02*
X61057143Y-35654819D01*
X61914286Y-35654819D02*
X61914286Y-36464342D01*
X61914286Y-36464342D02*
X61961905Y-36559580D01*
X61961905Y-36559580D02*
X62009524Y-36607200D01*
X62009524Y-36607200D02*
X62104762Y-36654819D01*
X62104762Y-36654819D02*
X62295238Y-36654819D01*
X62295238Y-36654819D02*
X62390476Y-36607200D01*
X62390476Y-36607200D02*
X62438095Y-36559580D01*
X62438095Y-36559580D02*
X62485714Y-36464342D01*
X62485714Y-36464342D02*
X62485714Y-35654819D01*
X62819048Y-35654819D02*
X63390476Y-35654819D01*
X63104762Y-36654819D02*
X63104762Y-35654819D01*
X64247619Y-36654819D02*
X63676191Y-36654819D01*
X63961905Y-36654819D02*
X63961905Y-35654819D01*
X63961905Y-35654819D02*
X63866667Y-35797676D01*
X63866667Y-35797676D02*
X63771429Y-35892914D01*
X63771429Y-35892914D02*
X63676191Y-35940533D01*
X46261904Y-35702438D02*
X46166666Y-35654819D01*
X46166666Y-35654819D02*
X46023809Y-35654819D01*
X46023809Y-35654819D02*
X45880952Y-35702438D01*
X45880952Y-35702438D02*
X45785714Y-35797676D01*
X45785714Y-35797676D02*
X45738095Y-35892914D01*
X45738095Y-35892914D02*
X45690476Y-36083390D01*
X45690476Y-36083390D02*
X45690476Y-36226247D01*
X45690476Y-36226247D02*
X45738095Y-36416723D01*
X45738095Y-36416723D02*
X45785714Y-36511961D01*
X45785714Y-36511961D02*
X45880952Y-36607200D01*
X45880952Y-36607200D02*
X46023809Y-36654819D01*
X46023809Y-36654819D02*
X46119047Y-36654819D01*
X46119047Y-36654819D02*
X46261904Y-36607200D01*
X46261904Y-36607200D02*
X46309523Y-36559580D01*
X46309523Y-36559580D02*
X46309523Y-36226247D01*
X46309523Y-36226247D02*
X46119047Y-36226247D01*
X46738095Y-36654819D02*
X46738095Y-35654819D01*
X46738095Y-35654819D02*
X47309523Y-36654819D01*
X47309523Y-36654819D02*
X47309523Y-35654819D01*
X47785714Y-36654819D02*
X47785714Y-35654819D01*
X47785714Y-35654819D02*
X48023809Y-35654819D01*
X48023809Y-35654819D02*
X48166666Y-35702438D01*
X48166666Y-35702438D02*
X48261904Y-35797676D01*
X48261904Y-35797676D02*
X48309523Y-35892914D01*
X48309523Y-35892914D02*
X48357142Y-36083390D01*
X48357142Y-36083390D02*
X48357142Y-36226247D01*
X48357142Y-36226247D02*
X48309523Y-36416723D01*
X48309523Y-36416723D02*
X48261904Y-36511961D01*
X48261904Y-36511961D02*
X48166666Y-36607200D01*
X48166666Y-36607200D02*
X48023809Y-36654819D01*
X48023809Y-36654819D02*
X47785714Y-36654819D01*
X49309523Y-36654819D02*
X48738095Y-36654819D01*
X49023809Y-36654819D02*
X49023809Y-35654819D01*
X49023809Y-35654819D02*
X48928571Y-35797676D01*
X48928571Y-35797676D02*
X48833333Y-35892914D01*
X48833333Y-35892914D02*
X48738095Y-35940533D01*
X51338095Y-36654819D02*
X51004762Y-36178628D01*
X50766667Y-36654819D02*
X50766667Y-35654819D01*
X50766667Y-35654819D02*
X51147619Y-35654819D01*
X51147619Y-35654819D02*
X51242857Y-35702438D01*
X51242857Y-35702438D02*
X51290476Y-35750057D01*
X51290476Y-35750057D02*
X51338095Y-35845295D01*
X51338095Y-35845295D02*
X51338095Y-35988152D01*
X51338095Y-35988152D02*
X51290476Y-36083390D01*
X51290476Y-36083390D02*
X51242857Y-36131009D01*
X51242857Y-36131009D02*
X51147619Y-36178628D01*
X51147619Y-36178628D02*
X50766667Y-36178628D01*
X51766667Y-36131009D02*
X52100000Y-36131009D01*
X52242857Y-36654819D02*
X51766667Y-36654819D01*
X51766667Y-36654819D02*
X51766667Y-35654819D01*
X51766667Y-35654819D02*
X52242857Y-35654819D01*
X53242857Y-36559580D02*
X53195238Y-36607200D01*
X53195238Y-36607200D02*
X53052381Y-36654819D01*
X53052381Y-36654819D02*
X52957143Y-36654819D01*
X52957143Y-36654819D02*
X52814286Y-36607200D01*
X52814286Y-36607200D02*
X52719048Y-36511961D01*
X52719048Y-36511961D02*
X52671429Y-36416723D01*
X52671429Y-36416723D02*
X52623810Y-36226247D01*
X52623810Y-36226247D02*
X52623810Y-36083390D01*
X52623810Y-36083390D02*
X52671429Y-35892914D01*
X52671429Y-35892914D02*
X52719048Y-35797676D01*
X52719048Y-35797676D02*
X52814286Y-35702438D01*
X52814286Y-35702438D02*
X52957143Y-35654819D01*
X52957143Y-35654819D02*
X53052381Y-35654819D01*
X53052381Y-35654819D02*
X53195238Y-35702438D01*
X53195238Y-35702438D02*
X53242857Y-35750057D01*
X53433334Y-36750057D02*
X54195238Y-36750057D01*
X54433334Y-36654819D02*
X54433334Y-35654819D01*
X54909524Y-36654819D02*
X54909524Y-35654819D01*
X54909524Y-35654819D02*
X55480952Y-36654819D01*
X55480952Y-36654819D02*
X55480952Y-35654819D01*
X56480952Y-36654819D02*
X55909524Y-36654819D01*
X56195238Y-36654819D02*
X56195238Y-35654819D01*
X56195238Y-35654819D02*
X56100000Y-35797676D01*
X56100000Y-35797676D02*
X56004762Y-35892914D01*
X56004762Y-35892914D02*
X55909524Y-35940533D01*
X34084819Y-44126666D02*
X33608628Y-44459999D01*
X34084819Y-44698094D02*
X33084819Y-44698094D01*
X33084819Y-44698094D02*
X33084819Y-44317142D01*
X33084819Y-44317142D02*
X33132438Y-44221904D01*
X33132438Y-44221904D02*
X33180057Y-44174285D01*
X33180057Y-44174285D02*
X33275295Y-44126666D01*
X33275295Y-44126666D02*
X33418152Y-44126666D01*
X33418152Y-44126666D02*
X33513390Y-44174285D01*
X33513390Y-44174285D02*
X33561009Y-44221904D01*
X33561009Y-44221904D02*
X33608628Y-44317142D01*
X33608628Y-44317142D02*
X33608628Y-44698094D01*
X34084819Y-43174285D02*
X34084819Y-43745713D01*
X34084819Y-43459999D02*
X33084819Y-43459999D01*
X33084819Y-43459999D02*
X33227676Y-43555237D01*
X33227676Y-43555237D02*
X33322914Y-43650475D01*
X33322914Y-43650475D02*
X33370533Y-43745713D01*
X44994819Y-48174285D02*
X43994819Y-48174285D01*
X44994819Y-47126667D02*
X44518628Y-47460000D01*
X44994819Y-47698095D02*
X43994819Y-47698095D01*
X43994819Y-47698095D02*
X43994819Y-47317143D01*
X43994819Y-47317143D02*
X44042438Y-47221905D01*
X44042438Y-47221905D02*
X44090057Y-47174286D01*
X44090057Y-47174286D02*
X44185295Y-47126667D01*
X44185295Y-47126667D02*
X44328152Y-47126667D01*
X44328152Y-47126667D02*
X44423390Y-47174286D01*
X44423390Y-47174286D02*
X44471009Y-47221905D01*
X44471009Y-47221905D02*
X44518628Y-47317143D01*
X44518628Y-47317143D02*
X44518628Y-47698095D01*
X45090057Y-46936191D02*
X45090057Y-46174286D01*
X43994819Y-46079047D02*
X43994819Y-45507619D01*
X44994819Y-45793333D02*
X43994819Y-45793333D01*
X44994819Y-44602857D02*
X44518628Y-44936190D01*
X44994819Y-45174285D02*
X43994819Y-45174285D01*
X43994819Y-45174285D02*
X43994819Y-44793333D01*
X43994819Y-44793333D02*
X44042438Y-44698095D01*
X44042438Y-44698095D02*
X44090057Y-44650476D01*
X44090057Y-44650476D02*
X44185295Y-44602857D01*
X44185295Y-44602857D02*
X44328152Y-44602857D01*
X44328152Y-44602857D02*
X44423390Y-44650476D01*
X44423390Y-44650476D02*
X44471009Y-44698095D01*
X44471009Y-44698095D02*
X44518628Y-44793333D01*
X44518628Y-44793333D02*
X44518628Y-45174285D01*
X44947200Y-44221904D02*
X44994819Y-44079047D01*
X44994819Y-44079047D02*
X44994819Y-43840952D01*
X44994819Y-43840952D02*
X44947200Y-43745714D01*
X44947200Y-43745714D02*
X44899580Y-43698095D01*
X44899580Y-43698095D02*
X44804342Y-43650476D01*
X44804342Y-43650476D02*
X44709104Y-43650476D01*
X44709104Y-43650476D02*
X44613866Y-43698095D01*
X44613866Y-43698095D02*
X44566247Y-43745714D01*
X44566247Y-43745714D02*
X44518628Y-43840952D01*
X44518628Y-43840952D02*
X44471009Y-44031428D01*
X44471009Y-44031428D02*
X44423390Y-44126666D01*
X44423390Y-44126666D02*
X44375771Y-44174285D01*
X44375771Y-44174285D02*
X44280533Y-44221904D01*
X44280533Y-44221904D02*
X44185295Y-44221904D01*
X44185295Y-44221904D02*
X44090057Y-44174285D01*
X44090057Y-44174285D02*
X44042438Y-44126666D01*
X44042438Y-44126666D02*
X43994819Y-44031428D01*
X43994819Y-44031428D02*
X43994819Y-43793333D01*
X43994819Y-43793333D02*
X44042438Y-43650476D01*
X44994819Y-42698095D02*
X44994819Y-43269523D01*
X44994819Y-42983809D02*
X43994819Y-42983809D01*
X43994819Y-42983809D02*
X44137676Y-43079047D01*
X44137676Y-43079047D02*
X44232914Y-43174285D01*
X44232914Y-43174285D02*
X44280533Y-43269523D01*
X55529819Y-48309523D02*
X54529819Y-48309523D01*
X55529819Y-47261905D02*
X55053628Y-47595238D01*
X55529819Y-47833333D02*
X54529819Y-47833333D01*
X54529819Y-47833333D02*
X54529819Y-47452381D01*
X54529819Y-47452381D02*
X54577438Y-47357143D01*
X54577438Y-47357143D02*
X54625057Y-47309524D01*
X54625057Y-47309524D02*
X54720295Y-47261905D01*
X54720295Y-47261905D02*
X54863152Y-47261905D01*
X54863152Y-47261905D02*
X54958390Y-47309524D01*
X54958390Y-47309524D02*
X55006009Y-47357143D01*
X55006009Y-47357143D02*
X55053628Y-47452381D01*
X55053628Y-47452381D02*
X55053628Y-47833333D01*
X55625057Y-47071429D02*
X55625057Y-46309524D01*
X55529819Y-45500000D02*
X55053628Y-45833333D01*
X55529819Y-46071428D02*
X54529819Y-46071428D01*
X54529819Y-46071428D02*
X54529819Y-45690476D01*
X54529819Y-45690476D02*
X54577438Y-45595238D01*
X54577438Y-45595238D02*
X54625057Y-45547619D01*
X54625057Y-45547619D02*
X54720295Y-45500000D01*
X54720295Y-45500000D02*
X54863152Y-45500000D01*
X54863152Y-45500000D02*
X54958390Y-45547619D01*
X54958390Y-45547619D02*
X55006009Y-45595238D01*
X55006009Y-45595238D02*
X55053628Y-45690476D01*
X55053628Y-45690476D02*
X55053628Y-46071428D01*
X55006009Y-45071428D02*
X55006009Y-44738095D01*
X55529819Y-44595238D02*
X55529819Y-45071428D01*
X55529819Y-45071428D02*
X54529819Y-45071428D01*
X54529819Y-45071428D02*
X54529819Y-44595238D01*
X55434580Y-43595238D02*
X55482200Y-43642857D01*
X55482200Y-43642857D02*
X55529819Y-43785714D01*
X55529819Y-43785714D02*
X55529819Y-43880952D01*
X55529819Y-43880952D02*
X55482200Y-44023809D01*
X55482200Y-44023809D02*
X55386961Y-44119047D01*
X55386961Y-44119047D02*
X55291723Y-44166666D01*
X55291723Y-44166666D02*
X55101247Y-44214285D01*
X55101247Y-44214285D02*
X54958390Y-44214285D01*
X54958390Y-44214285D02*
X54767914Y-44166666D01*
X54767914Y-44166666D02*
X54672676Y-44119047D01*
X54672676Y-44119047D02*
X54577438Y-44023809D01*
X54577438Y-44023809D02*
X54529819Y-43880952D01*
X54529819Y-43880952D02*
X54529819Y-43785714D01*
X54529819Y-43785714D02*
X54577438Y-43642857D01*
X54577438Y-43642857D02*
X54625057Y-43595238D01*
X55529819Y-42642857D02*
X55529819Y-43214285D01*
X55529819Y-42928571D02*
X54529819Y-42928571D01*
X54529819Y-42928571D02*
X54672676Y-43023809D01*
X54672676Y-43023809D02*
X54767914Y-43119047D01*
X54767914Y-43119047D02*
X54815533Y-43214285D01*
D13*
X42700000Y-38960000D02*
G75*
G02*
X39300000Y-38960000I-1700000J0D01*
G01*
X39300000Y-38960000D02*
G75*
G02*
X42700000Y-38960000I1700000J0D01*
G01*
X62200000Y-39000000D02*
G75*
G02*
X58800000Y-39000000I-1700000J0D01*
G01*
X58800000Y-39000000D02*
G75*
G02*
X62200000Y-39000000I1700000J0D01*
G01*
X49200000Y-39000000D02*
G75*
G02*
X45800000Y-39000000I-1700000J0D01*
G01*
X45800000Y-39000000D02*
G75*
G02*
X49200000Y-39000000I1700000J0D01*
G01*
X55700000Y-39000000D02*
G75*
G02*
X52300000Y-39000000I-1700000J0D01*
G01*
X52300000Y-39000000D02*
G75*
G02*
X55700000Y-39000000I1700000J0D01*
G01*
X36000000Y-48000000D02*
X36000000Y-47230000D01*
X36000000Y-39920000D02*
X36000000Y-40690000D01*
X34630000Y-47230000D02*
X37370000Y-47230000D01*
X37370000Y-40690000D01*
X34630000Y-40690000D01*
X34630000Y-47230000D01*
X46264000Y-47020000D02*
X46420000Y-47020000D01*
X48580000Y-47020000D02*
X48736000Y-47020000D01*
X46264484Y-47020000D02*
G75*
G02*
X46420000Y-43788563I1235516J1560000D01*
G01*
X46420000Y-46500961D02*
G75*
G02*
X46420000Y-44419039I1080000J1040961D01*
G01*
X48580000Y-44419039D02*
G75*
G02*
X48580000Y-46500961I-1080000J-1040961D01*
G01*
X48580000Y-43788563D02*
G75*
G02*
X48735516Y-47020000I-1080000J-1671437D01*
G01*
X55965000Y-42860000D02*
X55965000Y-45460000D01*
X56315000Y-42860000D02*
X55965000Y-42860000D01*
X58635000Y-42860000D02*
X58975000Y-42860000D01*
X58975000Y-42860000D02*
X58975000Y-47950000D01*
X58975000Y-43360000D02*
G75*
G02*
X58976736Y-47559917I-100000J-2100000D01*
G01*
M02*
