G04 #@! TF.GenerationSoftware,KiCad,Pcbnew,9.0.2*
G04 #@! TF.CreationDate,2025-06-20T02:48:36-04:00*
G04 #@! TF.ProjectId,IR_Prototype,49525f50-726f-4746-9f74-7970652e6b69,rev?*
G04 #@! TF.SameCoordinates,Original*
G04 #@! TF.FileFunction,Copper,L1,Top*
G04 #@! TF.FilePolarity,Positive*
%FSLAX46Y46*%
G04 Gerber Fmt 4.6, Leading zero omitted, Abs format (unit mm)*
G04 Created by KiCad (PCBNEW 9.0.2) date 2025-06-20 02:48:36*
%MOMM*%
%LPD*%
G01*
G04 APERTURE LIST*
G04 Aperture macros list*
%AMRoundRect*
0 Rectangle with rounded corners*
0 $1 Rounding radius*
0 $2 $3 $4 $5 $6 $7 $8 $9 X,Y pos of 4 corners*
0 Add a 4 corners polygon primitive as box body*
4,1,4,$2,$3,$4,$5,$6,$7,$8,$9,$2,$3,0*
0 Add four circle primitives for the rounded corners*
1,1,$1+$1,$2,$3*
1,1,$1+$1,$4,$5*
1,1,$1+$1,$6,$7*
1,1,$1+$1,$8,$9*
0 Add four rect primitives between the rounded corners*
20,1,$1+$1,$2,$3,$4,$5,0*
20,1,$1+$1,$4,$5,$6,$7,0*
20,1,$1+$1,$6,$7,$8,$9,0*
20,1,$1+$1,$8,$9,$2,$3,0*%
G04 Aperture macros list end*
G04 #@! TA.AperFunction,ComponentPad*
%ADD10C,3.000000*%
G04 #@! TD*
G04 #@! TA.AperFunction,ComponentPad*
%ADD11C,1.600000*%
G04 #@! TD*
G04 #@! TA.AperFunction,ComponentPad*
%ADD12R,1.800000X1.800000*%
G04 #@! TD*
G04 #@! TA.AperFunction,ComponentPad*
%ADD13C,1.800000*%
G04 #@! TD*
G04 #@! TA.AperFunction,ComponentPad*
%ADD14RoundRect,0.250200X0.649800X-0.649800X0.649800X0.649800X-0.649800X0.649800X-0.649800X-0.649800X0*%
G04 #@! TD*
G04 #@! TA.AperFunction,Conductor*
%ADD15C,0.400000*%
G04 #@! TD*
G04 APERTURE END LIST*
D10*
X41000000Y-38960000D03*
X60500000Y-39000000D03*
X47500000Y-39000000D03*
X54000000Y-39000000D03*
D11*
X36000000Y-49040000D03*
X36000000Y-38880000D03*
D12*
X47500000Y-46730000D03*
D13*
X47500000Y-44190000D03*
D14*
X57475000Y-48000000D03*
D13*
X57475000Y-45460000D03*
X57475000Y-42920000D03*
D15*
X60500000Y-44975000D02*
X60500000Y-39000000D01*
X57475000Y-48000000D02*
X60500000Y-44975000D01*
X42650000Y-49040000D02*
X47500000Y-44190000D01*
X36000000Y-49040000D02*
X42650000Y-49040000D01*
X41000000Y-38960000D02*
X36080000Y-38960000D01*
X36080000Y-38960000D02*
X36000000Y-38880000D01*
X57475000Y-42920000D02*
X54000000Y-39445000D01*
X54000000Y-39445000D02*
X54000000Y-39000000D01*
G04 #@! TA.AperFunction,Conductor*
G36*
X64442539Y-35320185D02*
G01*
X64488294Y-35372989D01*
X64499500Y-35424500D01*
X64499500Y-50775500D01*
X64479815Y-50842539D01*
X64427011Y-50888294D01*
X64375500Y-50899500D01*
X32624500Y-50899500D01*
X32557461Y-50879815D01*
X32511706Y-50827011D01*
X32500500Y-50775500D01*
X32500500Y-48937648D01*
X34699500Y-48937648D01*
X34699500Y-49142351D01*
X34731522Y-49344534D01*
X34794781Y-49539223D01*
X34817655Y-49584114D01*
X34883620Y-49713578D01*
X34887715Y-49721613D01*
X35008028Y-49887213D01*
X35152786Y-50031971D01*
X35307749Y-50144556D01*
X35318390Y-50152287D01*
X35434607Y-50211503D01*
X35500776Y-50245218D01*
X35500778Y-50245218D01*
X35500781Y-50245220D01*
X35605137Y-50279127D01*
X35695465Y-50308477D01*
X35796557Y-50324488D01*
X35897648Y-50340500D01*
X35897649Y-50340500D01*
X36102351Y-50340500D01*
X36102352Y-50340500D01*
X36304534Y-50308477D01*
X36499219Y-50245220D01*
X36681610Y-50152287D01*
X36774590Y-50084732D01*
X36847213Y-50031971D01*
X36847215Y-50031968D01*
X36847219Y-50031966D01*
X36991966Y-49887219D01*
X37061425Y-49791615D01*
X37116755Y-49748949D01*
X37161744Y-49740500D01*
X42718996Y-49740500D01*
X42813959Y-49721610D01*
X42854328Y-49713580D01*
X42918069Y-49687177D01*
X42981807Y-49660777D01*
X42981808Y-49660776D01*
X42981811Y-49660775D01*
X43096543Y-49584114D01*
X45888319Y-46792336D01*
X45949642Y-46758852D01*
X46019334Y-46763836D01*
X46075267Y-46805708D01*
X46099684Y-46871172D01*
X46100000Y-46880018D01*
X46100000Y-47677844D01*
X46106401Y-47737372D01*
X46106403Y-47737379D01*
X46156645Y-47872086D01*
X46156649Y-47872093D01*
X46242809Y-47987187D01*
X46242812Y-47987190D01*
X46357906Y-48073350D01*
X46357913Y-48073354D01*
X46492620Y-48123596D01*
X46492627Y-48123598D01*
X46552155Y-48129999D01*
X46552172Y-48130000D01*
X47250000Y-48130000D01*
X47250000Y-47105277D01*
X47326306Y-47149333D01*
X47440756Y-47180000D01*
X47559244Y-47180000D01*
X47673694Y-47149333D01*
X47750000Y-47105277D01*
X47750000Y-48130000D01*
X48447828Y-48130000D01*
X48447844Y-48129999D01*
X48507372Y-48123598D01*
X48507379Y-48123596D01*
X48642086Y-48073354D01*
X48642093Y-48073350D01*
X48757187Y-47987190D01*
X48757190Y-47987187D01*
X48843350Y-47872093D01*
X48843354Y-47872086D01*
X48893596Y-47737379D01*
X48893598Y-47737372D01*
X48899999Y-47677844D01*
X48900000Y-47677827D01*
X48900000Y-46980000D01*
X47875278Y-46980000D01*
X47919333Y-46903694D01*
X47950000Y-46789244D01*
X47950000Y-46670756D01*
X47919333Y-46556306D01*
X47875278Y-46480000D01*
X48900000Y-46480000D01*
X48900000Y-45782172D01*
X48899999Y-45782155D01*
X48893598Y-45722627D01*
X48893596Y-45722620D01*
X48843354Y-45587913D01*
X48843350Y-45587906D01*
X48757190Y-45472813D01*
X48725729Y-45449261D01*
X48545173Y-45349015D01*
X48526914Y-45330498D01*
X48506097Y-45314914D01*
X48502780Y-45306023D01*
X48496116Y-45299264D01*
X48490766Y-45273811D01*
X48481680Y-45249450D01*
X48483697Y-45240176D01*
X48481745Y-45230888D01*
X48491004Y-45206585D01*
X48496532Y-45181177D01*
X48504991Y-45169877D01*
X48506622Y-45165597D01*
X48510135Y-45163005D01*
X48517681Y-45152925D01*
X48568242Y-45102365D01*
X48697815Y-44924022D01*
X48797895Y-44727606D01*
X48866015Y-44517951D01*
X48900500Y-44300222D01*
X48900500Y-44079778D01*
X48866015Y-43862049D01*
X48797895Y-43652394D01*
X48797895Y-43652393D01*
X48763237Y-43584375D01*
X48697815Y-43455978D01*
X48681260Y-43433192D01*
X48568247Y-43277641D01*
X48568243Y-43277636D01*
X48412363Y-43121756D01*
X48412358Y-43121752D01*
X48234025Y-42992187D01*
X48234024Y-42992186D01*
X48234022Y-42992185D01*
X48171096Y-42960122D01*
X48037606Y-42892104D01*
X48037603Y-42892103D01*
X47827952Y-42823985D01*
X47719086Y-42806742D01*
X47610222Y-42789500D01*
X47389778Y-42789500D01*
X47317201Y-42800995D01*
X47172047Y-42823985D01*
X46962396Y-42892103D01*
X46962393Y-42892104D01*
X46765974Y-42992187D01*
X46587641Y-43121752D01*
X46587636Y-43121756D01*
X46431756Y-43277636D01*
X46431752Y-43277641D01*
X46302187Y-43455974D01*
X46202104Y-43652393D01*
X46202103Y-43652396D01*
X46133985Y-43862047D01*
X46099500Y-44079778D01*
X46099500Y-44300221D01*
X46130583Y-44496471D01*
X46121628Y-44565765D01*
X46095791Y-44603550D01*
X42396162Y-48303181D01*
X42334839Y-48336666D01*
X42308481Y-48339500D01*
X37161744Y-48339500D01*
X37094705Y-48319815D01*
X37061425Y-48288384D01*
X36991969Y-48192784D01*
X36847213Y-48048028D01*
X36681613Y-47927715D01*
X36681612Y-47927714D01*
X36681610Y-47927713D01*
X36624653Y-47898691D01*
X36499223Y-47834781D01*
X36304534Y-47771522D01*
X36129995Y-47743878D01*
X36102352Y-47739500D01*
X35897648Y-47739500D01*
X35873329Y-47743351D01*
X35695465Y-47771522D01*
X35500776Y-47834781D01*
X35318386Y-47927715D01*
X35152786Y-48048028D01*
X35008028Y-48192786D01*
X34887715Y-48358386D01*
X34794781Y-48540776D01*
X34731522Y-48735465D01*
X34699500Y-48937648D01*
X32500500Y-48937648D01*
X32500500Y-38777648D01*
X34699500Y-38777648D01*
X34699500Y-38982351D01*
X34731522Y-39184534D01*
X34794781Y-39379223D01*
X34887715Y-39561613D01*
X35008028Y-39727213D01*
X35152786Y-39871971D01*
X35307749Y-39984556D01*
X35318390Y-39992287D01*
X35434607Y-40051503D01*
X35500776Y-40085218D01*
X35500778Y-40085218D01*
X35500781Y-40085220D01*
X35605137Y-40119127D01*
X35695465Y-40148477D01*
X35796557Y-40164488D01*
X35897648Y-40180500D01*
X35897649Y-40180500D01*
X36102351Y-40180500D01*
X36102352Y-40180500D01*
X36304534Y-40148477D01*
X36499219Y-40085220D01*
X36681610Y-39992287D01*
X36774590Y-39924732D01*
X36847213Y-39871971D01*
X36847215Y-39871968D01*
X36847219Y-39871966D01*
X36991966Y-39727219D01*
X36992808Y-39726059D01*
X37003304Y-39711615D01*
X37058634Y-39668949D01*
X37103622Y-39660500D01*
X39041978Y-39660500D01*
X39109017Y-39680185D01*
X39154772Y-39732989D01*
X39156539Y-39737048D01*
X39201951Y-39846685D01*
X39201958Y-39846700D01*
X39333075Y-40073803D01*
X39492718Y-40281851D01*
X39492726Y-40281860D01*
X39678140Y-40467274D01*
X39678148Y-40467281D01*
X39886196Y-40626924D01*
X40113299Y-40758041D01*
X40113309Y-40758046D01*
X40355571Y-40858394D01*
X40355581Y-40858398D01*
X40608884Y-40926270D01*
X40868880Y-40960500D01*
X40868887Y-40960500D01*
X41131113Y-40960500D01*
X41131120Y-40960500D01*
X41391116Y-40926270D01*
X41644419Y-40858398D01*
X41886697Y-40758043D01*
X42113803Y-40626924D01*
X42321851Y-40467282D01*
X42321855Y-40467277D01*
X42321860Y-40467274D01*
X42507274Y-40281860D01*
X42507277Y-40281855D01*
X42507282Y-40281851D01*
X42666924Y-40073803D01*
X42798043Y-39846697D01*
X42898398Y-39604419D01*
X42966270Y-39351116D01*
X43000500Y-39091120D01*
X43000500Y-38868905D01*
X45500000Y-38868905D01*
X45500000Y-39131094D01*
X45534220Y-39391009D01*
X45534222Y-39391020D01*
X45602075Y-39644255D01*
X45702404Y-39886471D01*
X45702409Y-39886482D01*
X45833488Y-40113516D01*
X45833494Y-40113524D01*
X45920080Y-40226365D01*
X46637425Y-39509019D01*
X46723249Y-39637463D01*
X46862537Y-39776751D01*
X46990978Y-39862573D01*
X46273633Y-40579917D01*
X46273633Y-40579918D01*
X46386475Y-40666505D01*
X46386483Y-40666511D01*
X46613517Y-40797590D01*
X46613528Y-40797595D01*
X46855744Y-40897924D01*
X47108979Y-40965777D01*
X47108990Y-40965779D01*
X47368905Y-40999999D01*
X47368920Y-41000000D01*
X47631080Y-41000000D01*
X47631094Y-40999999D01*
X47891009Y-40965779D01*
X47891020Y-40965777D01*
X48144255Y-40897924D01*
X48386471Y-40797595D01*
X48386482Y-40797590D01*
X48613516Y-40666511D01*
X48613534Y-40666499D01*
X48726365Y-40579919D01*
X48726365Y-40579917D01*
X48009020Y-39862573D01*
X48137463Y-39776751D01*
X48276751Y-39637463D01*
X48362573Y-39509020D01*
X49079917Y-40226365D01*
X49079919Y-40226365D01*
X49166499Y-40113534D01*
X49166511Y-40113516D01*
X49297590Y-39886482D01*
X49297595Y-39886471D01*
X49397924Y-39644255D01*
X49465777Y-39391020D01*
X49465779Y-39391009D01*
X49499999Y-39131094D01*
X49500000Y-39131080D01*
X49500000Y-38868912D01*
X49499995Y-38868872D01*
X51999500Y-38868872D01*
X51999500Y-39131127D01*
X52006532Y-39184534D01*
X52033730Y-39391116D01*
X52099738Y-39637463D01*
X52101602Y-39644418D01*
X52101605Y-39644428D01*
X52201953Y-39886690D01*
X52201958Y-39886700D01*
X52333075Y-40113803D01*
X52492718Y-40321851D01*
X52492726Y-40321860D01*
X52678140Y-40507274D01*
X52678148Y-40507281D01*
X52886196Y-40666924D01*
X53113299Y-40798041D01*
X53113309Y-40798046D01*
X53355571Y-40898394D01*
X53355581Y-40898398D01*
X53608884Y-40966270D01*
X53857188Y-40998960D01*
X53865074Y-40999999D01*
X53868880Y-41000500D01*
X53868887Y-41000500D01*
X54131113Y-41000500D01*
X54131120Y-41000500D01*
X54391116Y-40966270D01*
X54431980Y-40955320D01*
X54501830Y-40956981D01*
X54551756Y-40987413D01*
X56070791Y-42506448D01*
X56104276Y-42567771D01*
X56105583Y-42613527D01*
X56074500Y-42809778D01*
X56074500Y-43030221D01*
X56108985Y-43247952D01*
X56177103Y-43457603D01*
X56177104Y-43457606D01*
X56245122Y-43591096D01*
X56276355Y-43652394D01*
X56277187Y-43654025D01*
X56406752Y-43832358D01*
X56406756Y-43832363D01*
X56562640Y-43988247D01*
X56702679Y-44089990D01*
X56745345Y-44145319D01*
X56751324Y-44214933D01*
X56718719Y-44276728D01*
X56702679Y-44290626D01*
X56677485Y-44308930D01*
X56677485Y-44308932D01*
X57386414Y-45017861D01*
X57301306Y-45040667D01*
X57198694Y-45099910D01*
X57114910Y-45183694D01*
X57055667Y-45286306D01*
X57032861Y-45371414D01*
X56323932Y-44662485D01*
X56323931Y-44662485D01*
X56277616Y-44726233D01*
X56177567Y-44922589D01*
X56109473Y-45132164D01*
X56075000Y-45349818D01*
X56075000Y-45570181D01*
X56109473Y-45787835D01*
X56177567Y-45997410D01*
X56277611Y-46193756D01*
X56323932Y-46257513D01*
X57032861Y-45548584D01*
X57055667Y-45633694D01*
X57114910Y-45736306D01*
X57198694Y-45820090D01*
X57301306Y-45879333D01*
X57386415Y-45902138D01*
X56702394Y-46586157D01*
X56653717Y-46616182D01*
X56505782Y-46665202D01*
X56505777Y-46665204D01*
X56356417Y-46757331D01*
X56232331Y-46881417D01*
X56140204Y-47030777D01*
X56140202Y-47030782D01*
X56085003Y-47197361D01*
X56074500Y-47300166D01*
X56074500Y-48699833D01*
X56085003Y-48802638D01*
X56129741Y-48937648D01*
X56140203Y-48969220D01*
X56232330Y-49118581D01*
X56356419Y-49242670D01*
X56505780Y-49334797D01*
X56616834Y-49371596D01*
X56672361Y-49389996D01*
X56709236Y-49393763D01*
X56775174Y-49400500D01*
X56775178Y-49400500D01*
X58174822Y-49400500D01*
X58174826Y-49400500D01*
X58277638Y-49389996D01*
X58444220Y-49334797D01*
X58593581Y-49242670D01*
X58717670Y-49118581D01*
X58809797Y-48969220D01*
X58864996Y-48802638D01*
X58875500Y-48699826D01*
X58875500Y-47641519D01*
X58895185Y-47574480D01*
X58911819Y-47553838D01*
X61044112Y-45421545D01*
X61044114Y-45421543D01*
X61120775Y-45306811D01*
X61121102Y-45306023D01*
X61162290Y-45206585D01*
X61173580Y-45179328D01*
X61188891Y-45102358D01*
X61200500Y-45043996D01*
X61200500Y-40958022D01*
X61220185Y-40890983D01*
X61272989Y-40845228D01*
X61277048Y-40843461D01*
X61386685Y-40798048D01*
X61386685Y-40798047D01*
X61386697Y-40798043D01*
X61613803Y-40666924D01*
X61821851Y-40507282D01*
X61821855Y-40507277D01*
X61821860Y-40507274D01*
X62007274Y-40321860D01*
X62007277Y-40321855D01*
X62007282Y-40321851D01*
X62166924Y-40113803D01*
X62298043Y-39886697D01*
X62298254Y-39886189D01*
X62364102Y-39727217D01*
X62398398Y-39644419D01*
X62466270Y-39391116D01*
X62500500Y-39131120D01*
X62500500Y-38868880D01*
X62466270Y-38608884D01*
X62398398Y-38355581D01*
X62398394Y-38355571D01*
X62298046Y-38113309D01*
X62298041Y-38113299D01*
X62166924Y-37886196D01*
X62007281Y-37678148D01*
X62007274Y-37678140D01*
X61821860Y-37492726D01*
X61821851Y-37492718D01*
X61613803Y-37333075D01*
X61386700Y-37201958D01*
X61386690Y-37201953D01*
X61144428Y-37101605D01*
X61144421Y-37101603D01*
X61144419Y-37101602D01*
X60891116Y-37033730D01*
X60833339Y-37026123D01*
X60631127Y-36999500D01*
X60631120Y-36999500D01*
X60368880Y-36999500D01*
X60368872Y-36999500D01*
X60137772Y-37029926D01*
X60108884Y-37033730D01*
X60004864Y-37061602D01*
X59855581Y-37101602D01*
X59855571Y-37101605D01*
X59613309Y-37201953D01*
X59613299Y-37201958D01*
X59386196Y-37333075D01*
X59178148Y-37492718D01*
X58992718Y-37678148D01*
X58833075Y-37886196D01*
X58701958Y-38113299D01*
X58701953Y-38113309D01*
X58601605Y-38355571D01*
X58601602Y-38355581D01*
X58533730Y-38608884D01*
X58533716Y-38608990D01*
X58499500Y-38868872D01*
X58499500Y-39131127D01*
X58506532Y-39184534D01*
X58533730Y-39391116D01*
X58599738Y-39637463D01*
X58601602Y-39644418D01*
X58601605Y-39644428D01*
X58701953Y-39886690D01*
X58701958Y-39886700D01*
X58833075Y-40113803D01*
X58992718Y-40321851D01*
X58992726Y-40321860D01*
X59178140Y-40507274D01*
X59178148Y-40507281D01*
X59386196Y-40666924D01*
X59613299Y-40798041D01*
X59613314Y-40798048D01*
X59722952Y-40843461D01*
X59777356Y-40887301D01*
X59799421Y-40953595D01*
X59799500Y-40958022D01*
X59799500Y-44633480D01*
X59779815Y-44700519D01*
X59763181Y-44721161D01*
X59082567Y-45401774D01*
X59021244Y-45435259D01*
X58951552Y-45430275D01*
X58895619Y-45388403D01*
X58872413Y-45333490D01*
X58840527Y-45132165D01*
X58772432Y-44922589D01*
X58672388Y-44726243D01*
X58626066Y-44662485D01*
X58626065Y-44662485D01*
X57917138Y-45371414D01*
X57894333Y-45286306D01*
X57835090Y-45183694D01*
X57751306Y-45099910D01*
X57648694Y-45040667D01*
X57563583Y-45017861D01*
X58272513Y-44308932D01*
X58247319Y-44290628D01*
X58204653Y-44235298D01*
X58198674Y-44165685D01*
X58231279Y-44103889D01*
X58247313Y-44089994D01*
X58387365Y-43988242D01*
X58543242Y-43832365D01*
X58672815Y-43654022D01*
X58772895Y-43457606D01*
X58841015Y-43247951D01*
X58875500Y-43030222D01*
X58875500Y-42809778D01*
X58841015Y-42592049D01*
X58772895Y-42382394D01*
X58772895Y-42382393D01*
X58738237Y-42314375D01*
X58672815Y-42185978D01*
X58656260Y-42163192D01*
X58543247Y-42007641D01*
X58543243Y-42007636D01*
X58387363Y-41851756D01*
X58387358Y-41851752D01*
X58209025Y-41722187D01*
X58209024Y-41722186D01*
X58209022Y-41722185D01*
X58146096Y-41690122D01*
X58012606Y-41622104D01*
X58012603Y-41622103D01*
X57802952Y-41553985D01*
X57694086Y-41536742D01*
X57585222Y-41519500D01*
X57364778Y-41519500D01*
X57279877Y-41532946D01*
X57168527Y-41550583D01*
X57099233Y-41541628D01*
X57061448Y-41515791D01*
X55731472Y-40185815D01*
X55697987Y-40124492D01*
X55702971Y-40054800D01*
X55711766Y-40036134D01*
X55798041Y-39886700D01*
X55798046Y-39886690D01*
X55864102Y-39727217D01*
X55898398Y-39644419D01*
X55966270Y-39391116D01*
X56000500Y-39131120D01*
X56000500Y-38868880D01*
X55966270Y-38608884D01*
X55898398Y-38355581D01*
X55898394Y-38355571D01*
X55798046Y-38113309D01*
X55798041Y-38113299D01*
X55666924Y-37886196D01*
X55507281Y-37678148D01*
X55507274Y-37678140D01*
X55321860Y-37492726D01*
X55321851Y-37492718D01*
X55113803Y-37333075D01*
X54886700Y-37201958D01*
X54886690Y-37201953D01*
X54644428Y-37101605D01*
X54644421Y-37101603D01*
X54644419Y-37101602D01*
X54391116Y-37033730D01*
X54333339Y-37026123D01*
X54131127Y-36999500D01*
X54131120Y-36999500D01*
X53868880Y-36999500D01*
X53868872Y-36999500D01*
X53637772Y-37029926D01*
X53608884Y-37033730D01*
X53504864Y-37061602D01*
X53355581Y-37101602D01*
X53355571Y-37101605D01*
X53113309Y-37201953D01*
X53113299Y-37201958D01*
X52886196Y-37333075D01*
X52678148Y-37492718D01*
X52492718Y-37678148D01*
X52333075Y-37886196D01*
X52201958Y-38113299D01*
X52201953Y-38113309D01*
X52101605Y-38355571D01*
X52101602Y-38355581D01*
X52033730Y-38608884D01*
X52033716Y-38608990D01*
X51999500Y-38868872D01*
X49499995Y-38868872D01*
X49465779Y-38608990D01*
X49465777Y-38608979D01*
X49397924Y-38355744D01*
X49297595Y-38113528D01*
X49297590Y-38113517D01*
X49166511Y-37886483D01*
X49166505Y-37886475D01*
X49079918Y-37773633D01*
X49079917Y-37773633D01*
X48362572Y-38490978D01*
X48276751Y-38362537D01*
X48137463Y-38223249D01*
X48009019Y-38137425D01*
X48726365Y-37420080D01*
X48613524Y-37333494D01*
X48613516Y-37333488D01*
X48386482Y-37202409D01*
X48386471Y-37202404D01*
X48144255Y-37102075D01*
X47891020Y-37034222D01*
X47891009Y-37034220D01*
X47631094Y-37000000D01*
X47368905Y-37000000D01*
X47108990Y-37034220D01*
X47108979Y-37034222D01*
X46855744Y-37102075D01*
X46613528Y-37202404D01*
X46613517Y-37202409D01*
X46386471Y-37333496D01*
X46273633Y-37420079D01*
X46273633Y-37420080D01*
X46990979Y-38137426D01*
X46862537Y-38223249D01*
X46723249Y-38362537D01*
X46637426Y-38490979D01*
X45920080Y-37773633D01*
X45920079Y-37773633D01*
X45833496Y-37886471D01*
X45702409Y-38113517D01*
X45702404Y-38113528D01*
X45602075Y-38355744D01*
X45534222Y-38608979D01*
X45534220Y-38608990D01*
X45500000Y-38868905D01*
X43000500Y-38868905D01*
X43000500Y-38828880D01*
X42966270Y-38568884D01*
X42898398Y-38315581D01*
X42898394Y-38315571D01*
X42798046Y-38073309D01*
X42798041Y-38073299D01*
X42666924Y-37846196D01*
X42537975Y-37678149D01*
X42507282Y-37638149D01*
X42507281Y-37638148D01*
X42507274Y-37638140D01*
X42321860Y-37452726D01*
X42321851Y-37452718D01*
X42113803Y-37293075D01*
X41886700Y-37161958D01*
X41886690Y-37161953D01*
X41644428Y-37061605D01*
X41644421Y-37061603D01*
X41644419Y-37061602D01*
X41391116Y-36993730D01*
X41333339Y-36986123D01*
X41131127Y-36959500D01*
X41131120Y-36959500D01*
X40868880Y-36959500D01*
X40868872Y-36959500D01*
X40637772Y-36989926D01*
X40608884Y-36993730D01*
X40457773Y-37034220D01*
X40355581Y-37061602D01*
X40355571Y-37061605D01*
X40113309Y-37161953D01*
X40113299Y-37161958D01*
X39886196Y-37293075D01*
X39678148Y-37452718D01*
X39492718Y-37638148D01*
X39333075Y-37846196D01*
X39201958Y-38073299D01*
X39201951Y-38073314D01*
X39156539Y-38182952D01*
X39112699Y-38237356D01*
X39046405Y-38259421D01*
X39041978Y-38259500D01*
X37219179Y-38259500D01*
X37152140Y-38239815D01*
X37115325Y-38202204D01*
X37115151Y-38202331D01*
X37114293Y-38201150D01*
X37113452Y-38200291D01*
X37112283Y-38198383D01*
X36991971Y-38032786D01*
X36847213Y-37888028D01*
X36681613Y-37767715D01*
X36681612Y-37767714D01*
X36681610Y-37767713D01*
X36624653Y-37738691D01*
X36499223Y-37674781D01*
X36304534Y-37611522D01*
X36129995Y-37583878D01*
X36102352Y-37579500D01*
X35897648Y-37579500D01*
X35873329Y-37583351D01*
X35695465Y-37611522D01*
X35500776Y-37674781D01*
X35318386Y-37767715D01*
X35152786Y-37888028D01*
X35008028Y-38032786D01*
X34887715Y-38198386D01*
X34794781Y-38380776D01*
X34731522Y-38575465D01*
X34699500Y-38777648D01*
X32500500Y-38777648D01*
X32500500Y-35424500D01*
X32520185Y-35357461D01*
X32572989Y-35311706D01*
X32624500Y-35300500D01*
X64375500Y-35300500D01*
X64442539Y-35320185D01*
G37*
G04 #@! TD.AperFunction*
M02*
